<?xml version="1.0" encoding="UTF-8"?>
<svg id="Layer_1" data-name="Layer 1" xmlns="http://www.w3.org/2000/svg" viewBox="0 0 1252 1054">
  <path d="M1252,521v58c-13.93,19.52-38.95,27.42-61.44,18.14-21.62-8.92-35.09-32.08-30.77-55.78-3.29-.27-6.18-.27-9.54-.02,5.35,31.59-19.32,59.9-50.73,59.61-30.96-.29-55.07-28.37-49.76-59.62-3.36-.2-6.23-.21-9.6-.06,3.04,16.77-2.4,32.77-13.9,44.45s-27.35,17.23-45.13,14.56l-.18,50.7h-101.95s0-102,0-102h59.79s1.12-7.94,1.12-7.94l-60.91-.09v-101.98s101.99,0,101.99,0l.04,60.89c9.51-1.76,17.83-.77,26.84,2.24l32.13-64.05,34,67.8c13.57-7.11,28.38-9.29,43.62-3.66l32.51-64.13,34.15,67.88c24.2-13.73,52.34-6.42,67.72,15.04ZM1050.35,538.88c2.94-13.84,10.88-23.82,22.13-31.8l-32.47-64.74-30.36,60.49c15.7,7.18,26.39,19.84,30.12,36.11l10.58-.06Z"/>
  <path d="M1252,345v4l-22.25,43.62c8.98,4.49,16.47,10.53,22.25,18.38v58c-13.93,19.52-38.95,27.43-61.44,18.14-21.61-8.93-35.17-32.03-30.74-56.08l-60.83-.09v-101.98s101.99,0,101.99,0l.04,60.89c9.5-1.77,17.85-.74,26.78,2.2l24.18-47.08Z"/>
  <path d="M0,821v-2c26.66-.06,48.77-21.99,48.96-48.65.2-26.92-22.01-49.27-48.96-49.35v-62h58.93c.84-29.71,26.46-52.33,55.45-49.81,28.63,2.48,50.23,28.88,46.16,57.71s-30.4,48.32-59.16,43.35c-.4,3.45-.38,6.56.2,9.47,30.69-5.02,57.82,17.97,59.33,47.79,1.53,30.18-23.99,55.39-54.27,53.34-29.64-2.01-52.03-29.35-46.87-59.53-3.34-.21-6.2-.21-9.51,0,5.28,31.55-19,59.49-50.25,59.68ZM99.01,720.1l-.17-10.26c-22.87-5.51-39.33-25.15-39.91-48.84H.99s.02,57.99.02,57.99c23.91.73,43.21,17,48.8,39.78,3.95.28,7.36.24,10.54-.32,4.82-19.56,19.36-33.51,38.67-38.36Z"/>
  <path d="M211,0v100.99s-50.7.03-50.7.03c4.95,28.87-15.21,55.63-43.45,59.51s-55.22-17.49-57.69-46.16,20-54.52,49.83-55.4l.02-58.96h102Z"/>
  <path d="M651,1054h-102v-65s59.91,0,59.91,0l.54-8h-60.46s0-102.01,0-102.01h101.99s.04,60.61.04,60.61l7.98-.72v-59.89s102,0,102,0v101.98s-50.77.06-50.77.06c2.83,17.28-2.66,33.41-14.47,45.14-11.73,11.65-27.91,16.74-44.71,14.13l-.06,13.69ZM758.99,979.01l.03-98.02h-98.02s.02,58.01.02,58.01c23.88.69,43.26,17,48.87,39.98l49.1.03ZM658.97,941.11c-27.73.64-48.85,24.13-47.88,50.64.97,26.54,23.48,47.77,49.94,47.21s48.55-23.21,47.92-50.01-22.52-48.48-49.97-47.84Z"/>
  <path d="M1252,109v140c-11.77,15.98-30.37,24.77-50.96,21.19l-.06,50.81h-101.98s0-102,0-102h59.91s.54-7.99.54-7.99h-60.46s0-102.01,0-102.01h101.99s.04,60.61.04,60.61l7.98-.72v-59.89s43,0,43,0ZM1199.02,170.01l-.03-59.01h-98s0,98.01,0,98.01l59.14-.02c4.69-19.6,19.34-33.98,38.89-38.98ZM1198.91,269.85c-23.68-5.87-39.12-25.37-39.94-48.84l-57.97-.02v98.01s98.04,0,98.04,0l-.13-49.16Z"/>
  <polygon points="1201 0 1201.01 101 1098.99 101 1099 0 1201 0"/>
  <polygon points="651 0 651.01 101 548.99 101 549 0 651 0"/>
  <path d="M721,0c.19,29.2,25.96,52.6,55.6,48.51,24.5-3.38,42.34-24.48,42.4-48.51h2c-.14,31.15-28.16,55.67-59.93,50.25l-.1,50.75h-101.98s0-101,0-101h62Z"/>
  <path d="M1252,741v58c-17.85,25.03-52.73,29.47-75.71,9.14-22.98-20.33-22.98-55.94,0-76.28,22.98-20.33,57.86-15.89,75.71,9.14Z"/>
  <path d="M1252,631v58c-16.5,23.16-48.03,29.09-71.21,12.73s-29.06-47.87-12.36-71.08c10.19-14.17,25.75-22,42.93-21.64,16.21.34,30.92,8.71,40.64,21.99Z"/>
  <rect x="1099" y="989" width="102" height="65"/>
  <rect x="879" y="989" width="102" height="65"/>
  <rect x="769" y="989" width="102" height="65"/>
  <rect x="219" y="989" width="102" height="65"/>
  <polygon points="931 0 981.69 101 878.39 100.88 929 0 931 0"/>
  <polygon points="0 981 0 977 50.04 877.98 101.54 980.88 0 981"/>
  <path d="M0,381v-102c5.92.12,11.65,1.25,17.84,3.02l32.16-64.01,34.21,68.02c21.97-12.67,47.79-7.72,63.87,10.24s17.48,44.25,2.95,63.84c-14.02,18.9-39.32,26.59-61.71,16.44-20.67-9.37-33.73-31.67-29.56-55.24-3.34-.19-6.19-.19-9.46.02,5.27,31.49-19.08,59.58-50.29,59.67ZM60.39,318.78c2.94-14.18,11.08-23.77,22.01-31.76l-32.4-64.41-30.29,60.09c14.93,7.23,26.39,19.41,30.04,36.22l10.63-.14ZM158.59,336.23c2.25-16.2-4.02-31.12-14.87-41.55s-25.86-15.6-41.12-13.12c-24.21,3.94-41.84,24.87-41.6,48.94s17.65,44.17,41.63,47.92c26.88,4.2,52.13-14.7,55.96-42.19Z"/>
  <path d="M381,0c-.12,31.17-28.13,55.69-59.93,50.23l-.1,50.77h-101.98s0-101,0-101h162ZM318.92,49.85c-23.62-5.77-39.3-25.54-40.02-48.85h-57.9s0,98,0,98h98.04s-.12-49.15-.12-49.15Z"/>
  <path d="M0,601v-102c28.16.03,51.24,23.31,50.98,51.48-.26,27.73-23.18,50.5-50.98,50.52Z"/>
  <path d="M1041,0c.1,28.22-23.31,51.21-51.51,51.01-27.73-.19-50.59-23.2-50.49-51.01h102Z"/>
  <path d="M0,491v-102c28.09-.17,51.34,23.39,51.07,51.48-.27,27.66-23.32,50.72-51.07,50.52Z"/>
  <rect x="1209" y="989" width="43" height="65"/>
  <polygon points="413 1054 347 1054 380.14 988.12 413 1054"/>
  <polygon points="193 1054 127 1054 160.14 988.12 193 1054"/>
  <polygon points="83 1054 17 1054 50 987.93 83 1054"/>
  <path d="M51,0c-.04,27.99-23.01,50.96-51,51V0h51Z"/>
  <path d="M1252,101l-43.38-.02,40.39-80.85c1.06-2.12,1.91-3.8,2.99-5.26v86.13Z"/>
  <polygon points="541 1054 539 1054 539 991 441 991 441 1054 439 1054 439 989 541 989 541 1054"/>
  <path d="M391,0c.08,26.66,21.99,48.77,48.65,48.97,26.92.2,49.27-22.02,49.35-48.97h2c-.03,28.16-23.3,51.24-51.48,50.98-27.74-.26-50.5-23.17-50.52-50.98h2Z"/>
  <path d="M0,161v-2c26.67-.04,48.72-21.91,48.97-48.52.26-27.05-21.95-49.43-48.97-49.48v-2c28.15.03,51.24,23.31,50.98,51.48-.26,27.73-23.18,50.5-50.98,50.52Z"/>
  <polygon points="1073 1054 1071 1054 1040 992.34 1009 1054 1007 1054 1040 988.03 1073 1054"/>
  <polygon points="1252 899 1211.65 978.78 1252 979 1252 981 1208.46 980.96 1252 895 1252 899"/>
  <path d="M278.61,439.02l1.2-7.99-60.81-.04v-101.99s59.78,0,59.78,0l1.01-7.98-60.79-.04v-101.99s102,0,102,0v60.61s8.01-.76,8.01-.76v-59.85s102,0,102,0v60.46s8-.54,8-.54v-59.92s59.78.01,59.78.01l1-7.98-60.79-.04v-101.99s101.92,0,101.92,0l.15,60.89c9.46-1.75,17.8-.78,26.79,2.25l32.14-64.02,51.52,102.84-51.28.09c2.82,16.49-2.2,32.5-13.48,44.19-11.63,12.06-27.67,17.73-45.29,15.09-.43,2.89-.44,6.04-.1,9.51,30.05-5.44,57.47,17.11,59.52,46.78,2.09,30.36-23.08,55.75-53.38,54.33-30.1-1.41-53.1-29.23-47.73-59.63-3.29-.19-6.15-.19-9.53.01,5.32,31.27-18.83,59.37-49.79,59.63-31.1.26-55.91-27.57-50.73-59.37-2.94-.58-6.07-.59-9.56-.25,3.04,16.69-2.41,32.73-13.9,44.41s-27.43,17.18-44.78,14.59c-.45,2.88-.46,6.05-.09,9.49,31.1-5.58,59.27,18.68,59.6,49.69.33,31.41-27.93,56.15-59.91,50.72l-.1,50.77h-101.97s0-102.01,0-102.01l59.62.02ZM599.95,209.1l48.42-.29-48.33-96.52-30.39,60.56c15.77,7.07,26.27,19.88,30.31,36.25ZM390.28,318.81c4.68-19.85,19.59-33.94,38.71-38.69l.02-59.12h-98.02s.02,57.96.02,57.96c24.01.73,43.39,17.15,48.8,39.97l10.47-.12Z"/>
  <path d="M769,879.05l59.99-.08c.9-27.51,22.46-49.08,50-49.97l.02-60h59.86s.67-7.95.67-7.95l-61.11-.09,51.55-102.94,34.05,67.75c7.85-3.82,15.6-6.47,24.97-6.82v-59.94s60.01-.02,60.01-.02c.83-29.58,25.95-51.79,54.5-49.83,28.8,1.98,50.67,28.09,47.09,56.96-3.52,28.41-30.13,49.2-59.54,44.09l-.09,50.78-50.7.06c2.79,17.03-2.54,33.03-14.04,44.67-11.73,11.88-27.77,17.33-44.99,14.56l.07,9.49c30.2-5.17,57.53,17.22,59.54,46.87,2.05,30.28-23.16,55.81-53.34,54.27s-52.82-28.63-47.79-59.34c-2.92-.54-6.04-.57-9.45-.27,2.68,16.83-2.52,32.72-14.06,44.43s-27.87,17.35-45.17,14.51l-.07,50.77h-101.98s0-101.95,0-101.95ZM1094.99,611.34c-27.79,2.93-46.8,28.05-43.57,54.47s27.26,45.68,53.61,42.9c26.64-2.81,46.55-27.01,43.68-53.75-2.81-26.12-26.23-46.53-53.71-43.62ZM979.01,830.1l-.17-10.26c-22.87-5.51-39.33-25.15-39.91-48.84h-57.94s.02,57.99.02,57.99c23.91.73,43.21,17,48.8,39.78,3.95.28,7.36.24,10.54-.32,4.82-19.56,19.35-33.51,38.67-38.36ZM878.97,831.1c-27.75.61-48.84,24.1-47.88,50.65s23.47,47.77,49.94,47.21c26.75-.57,48.55-23.21,47.92-50-.62-26.32-22.52-48.46-49.98-47.86Z"/>
  <path d="M820.13,658l51.51,102.92-51.5.17c5.72,31.5-18.71,59.54-49.68,59.89-31.41.36-56.3-28.11-50.67-59.93l-60.8-.08v-101.98s102,0,102,0v60.7c9.28-1.29,17.69-.78,26.97,2.47l32.16-64.17Z"/>
  <path d="M329.02,981.01l-.03-102.01h59.9s.72-7.96.72-7.96l-61.1-.08,51.48-102.91,34.04,67.86c20.07-11.09,43.95-8.72,60.66,6.85s21.37,39.87,10.55,60.6c-10.14,19.43-31.66,30.71-54.22,26.91l-.02,50.72h-101.98ZM390.26,868.99c3.04-13.82,10.98-24.04,22.22-31.91l-32.51-64.79-48.45,96.69h58.74Z"/>
  <path d="M760.98,650.99l-101.98.03v-102.01s60.15,0,60.15,0c.24-16.94,8.71-31.18,20.93-40.13,14.19-10.39,31.45-12.58,47.68-6.67l32.27-64.19,51.54,102.92-51.33.14c2.89,16.96-2.55,33-14.03,44.64-11.62,11.78-27.93,17.48-45.16,14.52l-.07,50.75ZM818.46,557.05c2.47-16.18-3.43-31.19-14.2-41.85-10.62-10.5-25.56-15.99-40.83-13.77-25.43,3.69-43.62,25.97-42.33,51.05s21.49,45.16,46.44,46.45c24.58,1.28,47.04-16.45,50.92-41.89Z"/>
  <path d="M380.03,548.06l51.57,102.87-51.39.16c5.43,31.53-18.8,59.57-49.73,59.86-31.37.29-56.19-27.97-50.7-59.89l-60.79-.08v-101.98s101.99,0,101.99,0l.04,60.7c9.32-1.25,17.46-.78,26.65,2.49l32.35-64.13ZM319.02,610.01l-.03-59.01h-98s0,98.01,0,98.01l59.14-.02c4.69-19.6,19.33-33.98,38.89-38.98Z"/>
  <path d="M490.31,761.07c5.37,31.6-18.9,59.64-49.85,59.96-31.5.33-56.26-28.39-50.79-59.58s37.22-50.66,67.98-39.26l32.38-64.21,51.57,102.96-51.29.13Z"/>
  <path d="M600.24,541.07c5.34,31.62-18.79,59.56-49.78,59.89-31.49.34-56.12-28.36-50.69-59.53,5.34-30.61,37.12-50.5,67.87-39.2l32.4-64.25,51.57,102.96-51.36.13Z"/>
  <polygon points="1091.01 210.98 989 211.01 989 109 1091 109 1091.01 210.98"/>
  <polygon points="651.01 870.98 549 871.01 549 769 651 769 651.01 870.98"/>
  <polygon points="1091.01 320.98 989 321.01 989 219 1091 219 1091.01 320.98"/>
  <polygon points="431.01 210.98 329 211.01 329 109 431 109 431.01 210.98"/>
  <path d="M270.28,761.07c5.34,31.62-18.86,59.59-49.82,59.92-31.49.33-56.21-28.35-50.74-59.54s37.19-50.62,67.97-39.22l32.35-64.24,51.54,102.94-51.29.13ZM269.95,759.04l48.42-.06-48.32-96.39-30.35,60.13c15,7.05,26.27,19.55,30.24,36.31Z"/>
  <path d="M102.97,499.54c28.57-4.09,53.6,16.27,57.53,43.41,4.03,27.82-15.81,53.63-43.47,57.56-27.48,3.9-53.16-15.24-57.42-42.67-4.28-27.57,14.48-54.16,43.36-58.3Z"/>
  <path d="M212.97,829.49c28.52-4.07,53.68,16.38,57.59,43.47s-15.94,53.69-43.52,57.6-53.21-15.37-57.5-42.75,14.69-54.22,43.44-58.32Z"/>
  <path d="M102.96,169.57c28.53-4.06,53.62,16.27,57.52,43.38s-15.8,53.61-43.44,57.54c-27.39,3.89-53.12-15.33-57.4-42.65-4.3-27.45,14.55-54.18,43.32-58.27Z"/>
  <path d="M102.97,389.54c28.57-4.09,53.6,16.27,57.53,43.41,4.03,27.82-15.81,53.63-43.47,57.56-27.48,3.9-53.16-15.24-57.42-42.67-4.28-27.57,14.48-54.16,43.36-58.3Z"/>
  <path d="M980.99,218.99l.03,101.98-50.8.1c5.43,31.55-18.79,59.6-49.73,59.88-31.39.28-56.18-27.94-50.7-59.88l-61.18-.1,51.5-102.92,34.07,67.8c7.87-4.11,15.61-6.43,24.82-6.9v-59.95s101.99,0,101.99,0ZM978.99,319.01l.03-98.02h-98.02s.02,58.01.02,58.01c23.88.69,43.26,17,48.87,39.98l49.1.03ZM878.96,281.1c-27.71.6-48.82,24.14-47.88,50.66.93,26.52,23.5,47.78,49.94,47.21,26.76-.58,48.56-23.21,47.92-50.01-.62-26.32-22.51-48.46-49.99-47.86Z"/>
  <polygon points="1201.59 980.95 1098.34 981.02 1149.99 877.89 1201.59 980.95"/>
  <polygon points="761.55 210.83 658.28 211.01 709.99 107.83 761.55 210.83"/>
  <polygon points="871.52 210.82 768.56 211.04 820.12 107.99 871.52 210.82"/>
  <polygon points="981.55 210.95 878.39 211.01 929.99 107.96 981.55 210.95"/>
  <polygon points="761.55 870.95 658.39 871.01 709.99 767.96 761.55 870.95"/>
  <polygon points="1091.56 430.95 988.39 431.01 1039.99 327.95 1091.56 430.95"/>
  <polygon points="871.59 430.95 768.34 431.02 819.99 327.89 871.59 430.95"/>
  <path d="M710.24,321.07c5.34,31.62-18.79,59.56-49.78,59.89-31.49.34-56.13-28.36-50.69-59.53,5.34-30.6,37.11-50.52,67.9-39.19l32.35-64.22,51.54,102.91-51.33.13ZM654.98,281.34c-27.76,2.93-46.78,28.02-43.6,54.47s27.26,45.68,53.63,42.9c26.63-2.81,46.56-26.99,43.69-53.75-2.8-26.11-26.23-46.53-53.72-43.63Z"/>
  <path d="M652.96,389.57c28.53-4.05,53.62,16.27,57.52,43.38s-15.79,53.62-43.44,57.54c-27.39,3.89-53.13-15.32-57.4-42.65s14.54-54.18,43.32-58.27ZM658.97,391.1c-27.76.61-48.82,24.09-47.89,50.66.93,26.5,23.5,47.78,49.94,47.21,26.75-.58,48.56-23.21,47.92-50.01-.62-26.31-22.52-48.46-49.98-47.86Z"/>
  <path d="M432.96,499.57c28.53-4.05,53.62,16.27,57.52,43.38,3.99,27.78-15.79,53.62-43.44,57.54-27.39,3.89-53.13-15.32-57.4-42.65-4.29-27.46,14.54-54.18,43.32-58.27ZM438.97,501.1c-27.76.61-48.82,24.09-47.89,50.66s23.5,47.78,49.94,47.21c26.75-.58,48.56-23.21,47.92-50.01-.62-26.31-22.52-48.46-49.98-47.86Z"/>
  <path d="M321.56,210.95l-103.17.06,51.61-103.09,51.56,103.03ZM318.36,208.99l-48.36-96.46-48.34,96.44,96.7.03Z"/>
  <path d="M432.96,389.57c28.53-4.06,53.62,16.28,57.52,43.38s-15.81,53.61-43.44,57.54c-27.39,3.89-53.12-15.33-57.4-42.65s14.55-54.18,43.32-58.27ZM434.98,391.34c-27.76,2.93-46.78,28.02-43.6,54.47s27.26,45.68,53.63,42.9c26.63-2.81,46.56-26.99,43.69-53.75-2.8-26.12-26.22-46.53-53.72-43.63Z"/>
  <path d="M1201.56,870.95l-103.17.06,51.61-103.09,51.56,103.03ZM1198.36,868.99l-48.35-96.46-48.34,96.43,96.7.03Z"/>
  <path d="M160.6,886.24c-3.53,26.96-27.01,45.97-53.08,44.71-25.99-1.26-47.19-22.5-48.47-48.46-1.28-26.16,17.87-49.41,44.33-53.06,15.89-2.19,31.29,3.44,42.32,14.36,10.91,10.81,17.05,25.97,14.9,42.45ZM117.03,928.48c21.98-3.43,38.36-20.4,41.53-41.89,2.3-15.58-3.49-30.75-14.29-41.39-10.63-10.48-25.55-16-40.86-13.76-21.86,3.2-38.78,20.11-41.97,41.97-2.27,15.57,3.47,30.76,14.3,41.39,10.62,10.42,25.48,16.15,41.29,13.68Z"/>
  <path d="M651.52,761h-103.04s51.52-102.97,51.52-102.97l51.52,102.97ZM648.34,758.84l-48.35-96.6-48.51,96.79,96.86-.19Z"/>
</svg>